<?xml version="1.0" encoding="UTF-8" standalone="no"?>
<!-- Created with Inkscape (http://www.inkscape.org/) -->

<svg
   xmlns:dc="http://purl.org/dc/elements/1.1/"
   xmlns:cc="http://creativecommons.org/ns#"
   xmlns:rdf="http://www.w3.org/1999/02/22-rdf-syntax-ns#"
   xmlns:svg="http://www.w3.org/2000/svg"
   xmlns="http://www.w3.org/2000/svg"
   xmlns:sodipodi="http://sodipodi.sourceforge.net/DTD/sodipodi-0.dtd"
   xmlns:inkscape="http://www.inkscape.org/namespaces/inkscape"
   width="655.34003"
   height="130.35001"
   id="svg2"
   version="1.1"
   inkscape:version="0.48.4 r9939"
   sodipodi:docname="pros_schem.pdf">
  <defs
     id="defs4">
    <clipPath
       id="clipPath3060"
       clipPathUnits="userSpaceOnUse">
      <path
         id="path3062"
         d="m 0,11 149,0 0,1 -149,0 0,-1 z"
         inkscape:connector-curvature="0" />
    </clipPath>
    <clipPath
       id="clipPath3050"
       clipPathUnits="userSpaceOnUse">
      <path
         id="path3052"
         d="m -0.336,78.805 0,-84.125 150.219,0 0,84.125 -150.219,0 z m 145.082,-68.481 4.082,0 0,1.622 -4.082,0 3.246,-0.813 -3.246,-0.809 z"
         inkscape:connector-curvature="0" />
    </clipPath>
    <clipPath
       id="clipPath3044"
       clipPathUnits="userSpaceOnUse">
      <path
         id="path3046"
         d="m 0,79.5 149,0 0,-80 -149,0 0,80 z"
         inkscape:connector-curvature="0" />
    </clipPath>
    <clipPath
       id="clipPath3224"
       clipPathUnits="userSpaceOnUse">
      <path
         id="path3226"
         d="m 0,11 149,0 0,1 -149,0 0,-1 z"
         inkscape:connector-curvature="0" />
    </clipPath>
    <clipPath
       id="clipPath3214"
       clipPathUnits="userSpaceOnUse">
      <path
         id="path3216"
         d="m -0.336,78.805 0,-84.125 150.219,0 0,84.125 -150.219,0 z m 145.082,-68.481 4.082,0 0,1.622 -4.082,0 3.246,-0.813 -3.246,-0.809 z"
         inkscape:connector-curvature="0" />
    </clipPath>
    <clipPath
       id="clipPath3208"
       clipPathUnits="userSpaceOnUse">
      <path
         id="path3210"
         d="m 0,79.5 149,0 0,-80 -149,0 0,80 z"
         inkscape:connector-curvature="0" />
    </clipPath>
    <clipPath
       id="clipPath3404"
       clipPathUnits="userSpaceOnUse">
      <path
         id="path3406"
         d="m 0,11 149,0 0,1 -149,0 0,-1 z"
         inkscape:connector-curvature="0" />
    </clipPath>
    <clipPath
       id="clipPath3394"
       clipPathUnits="userSpaceOnUse">
      <path
         id="path3396"
         d="m -0.336,78.805 0,-84.125 150.219,0 0,84.125 -150.219,0 z m 145.082,-68.481 4.082,0 0,1.622 -4.082,0 3.246,-0.813 -3.246,-0.809 z"
         inkscape:connector-curvature="0" />
    </clipPath>
    <clipPath
       id="clipPath3388"
       clipPathUnits="userSpaceOnUse">
      <path
         id="path3390"
         d="m 0,79.5 149,0 0,-80 -149,0 0,80 z"
         inkscape:connector-curvature="0" />
    </clipPath>
  </defs>
  <sodipodi:namedview
     id="base"
     pagecolor="#ffffff"
     bordercolor="#666666"
     borderopacity="1.0"
     inkscape:pageopacity="0.0"
     inkscape:pageshadow="2"
     inkscape:zoom="1.4"
     inkscape:cx="434.04919"
     inkscape:cy="7.5773768"
     inkscape:document-units="px"
     inkscape:current-layer="layer1"
     showgrid="false"
     fit-margin-top="0"
     fit-margin-left="0"
     fit-margin-right="0"
     fit-margin-bottom="0"
     inkscape:window-width="1366"
     inkscape:window-height="714"
     inkscape:window-x="0"
     inkscape:window-y="0"
     inkscape:window-maximized="1" />
  <metadata
     id="metadata7">
    <rdf:RDF>
      <cc:Work
         rdf:about="">
        <dc:format>image/svg+xml</dc:format>
        <dc:type
           rdf:resource="http://purl.org/dc/dcmitype/StillImage" />
        <dc:title></dc:title>
      </cc:Work>
    </rdf:RDF>
  </metadata>
  <g
     inkscape:label="Layer 1"
     inkscape:groupmode="layer"
     id="layer1"
     transform="translate(-55.75418,-12.017311)">
    <g
       transform="matrix(1.25,0,0,-1.25,57.75418,140.36506)"
       inkscape:label="fitted_bin_1"
       id="g3012">
      <g
         id="g3014">
        <path
           id="path3016"
           style="fill:#0000ff;fill-opacity:1;fill-rule:evenodd;stroke:none"
           d="m 14.598,11.133 c 0,-1.344 -1.09,-2.434 -2.434,-2.434 -1.344,0 -2.43,1.09 -2.43,2.434 0,1.344 1.086,2.434 2.43,2.434 1.344,0 2.434,-1.09 2.434,-2.434"
           inkscape:connector-curvature="0" />
        <g
           transform="matrix(1,0,0,-1,0,95.500267)"
           id="g3018">
          <path
             id="path3020"
             style="fill:none;stroke:#0000ff;stroke-width:0.202765;stroke-linecap:butt;stroke-linejoin:miter;stroke-miterlimit:10;stroke-opacity:1;stroke-dasharray:none"
             d="m 14.598,84.367 c 0,1.344 -1.09,2.434 -2.434,2.434 -1.344,0 -2.43,-1.09 -2.43,-2.434 0,-1.344 1.086,-2.433 2.43,-2.433 1.344,0 2.434,1.089 2.434,2.433 z"
             inkscape:connector-curvature="0" />
        </g>
        <path
           id="path3022"
           style="fill:#ff0000;fill-opacity:1;fill-rule:evenodd;stroke:none"
           d="m 63.262,11.133 c 0,-1.344 -1.09,-2.434 -2.434,-2.434 -1.344,0 -2.433,1.09 -2.433,2.434 0,1.344 1.089,2.434 2.433,2.434 1.344,0 2.434,-1.09 2.434,-2.434"
           inkscape:connector-curvature="0" />
        <g
           transform="matrix(1,0,0,-1,0,95.500267)"
           id="g3024">
          <path
             id="path3026"
             style="fill:none;stroke:#ff0000;stroke-width:0.202765;stroke-linecap:butt;stroke-linejoin:miter;stroke-miterlimit:10;stroke-opacity:1;stroke-dasharray:none"
             d="m 63.262,84.367 c 0,1.344 -1.09,2.434 -2.434,2.434 -1.344,0 -2.433,-1.09 -2.433,-2.434 0,-1.344 1.089,-2.433 2.433,-2.433 1.344,0 2.434,1.089 2.434,2.433 z"
             inkscape:connector-curvature="0" />
        </g>
        <path
           id="path3028"
           style="fill:#d100d1;fill-opacity:1;fill-rule:evenodd;stroke:none"
           d="m 136.258,11.133 c 0,-1.344 -1.09,-2.434 -2.434,-2.434 -1.344,0 -2.433,1.09 -2.433,2.434 0,1.344 1.089,2.434 2.433,2.434 1.344,0 2.434,-1.09 2.434,-2.434"
           inkscape:connector-curvature="0" />
        <g
           transform="matrix(1,0,0,-1,0,95.500267)"
           id="g3030">
          <path
             id="path3032"
             style="fill:none;stroke:#d100d1;stroke-width:0.202765;stroke-linecap:butt;stroke-linejoin:miter;stroke-miterlimit:10;stroke-opacity:1;stroke-dasharray:none"
             d="m 136.258,84.367 c 0,1.344 -1.09,2.434 -2.434,2.434 -1.344,0 -2.433,-1.09 -2.433,-2.434 0,-1.344 1.089,-2.433 2.433,-2.433 1.344,0 2.434,1.089 2.434,2.433 z"
             inkscape:connector-curvature="0" />
        </g>
        <path
           id="path3034"
           style="fill:#00ffff;fill-opacity:1;fill-rule:evenodd;stroke:none"
           d="m 109.492,11.133 c 0,-1.344 -1.09,-2.434 -2.433,-2.434 -1.344,0 -2.434,1.09 -2.434,2.434 0,1.344 1.09,2.434 2.434,2.434 1.343,0 2.433,-1.09 2.433,-2.434"
           inkscape:connector-curvature="0" />
        <g
           transform="matrix(1,0,0,-1,0,95.500267)"
           id="g3036">
          <path
             id="path3038"
             style="fill:none;stroke:#00ffff;stroke-width:0.202765;stroke-linecap:butt;stroke-linejoin:miter;stroke-miterlimit:10;stroke-opacity:1;stroke-dasharray:none"
             d="m 109.492,84.367 c 0,1.344 -1.09,2.434 -2.433,2.434 -1.344,0 -2.434,-1.09 -2.434,-2.434 0,-1.344 1.09,-2.433 2.434,-2.433 1.343,0 2.433,1.089 2.433,2.433 z"
             inkscape:connector-curvature="0" />
        </g>
      </g>
      <g
         id="g3040">
        <g
           clip-path="url(#clipPath3044)"
           id="g3042">
          <g
             clip-path="url(#clipPath3050)"
             id="g3048">
            <g
               transform="translate(0,-0.499733)"
               id="g3054">
              <g
                 id="g3056">
                <g
                   clip-path="url(#clipPath3060)"
                   id="g3058">
                  <g
                     id="g3064">
                    <g
                       transform="translate(0,96)"
                       id="g3066">
                      <path
                         id="path3068"
                         style="fill:none;stroke:#000000;stroke-width:0.202765;stroke-linecap:butt;stroke-linejoin:miter;stroke-miterlimit:10;stroke-opacity:1;stroke-dasharray:none"
                         d="m 0,-84.367 148.422,0"
                         inkscape:connector-curvature="0" />
                    </g>
                  </g>
                </g>
              </g>
            </g>
          </g>
        </g>
      </g>
      <g
         id="g3070">
        <path
           id="path3072"
           style="fill:#000000;fill-opacity:1;fill-rule:evenodd;stroke:none"
           d="m 144.746,10.324 3.246,0.809 -3.246,0.813 0,-1.622"
           inkscape:connector-curvature="0" />
        <g
           transform="matrix(1,0,0,-1,0,95.500267)"
           id="g3074">
          <path
             id="path3076"
             style="fill:none;stroke:#000000;stroke-width:0.202765;stroke-linecap:butt;stroke-linejoin:miter;stroke-miterlimit:10;stroke-opacity:1;stroke-dasharray:none"
             d="m 144.746,85.176 3.246,-0.809 -3.246,-0.812 0,1.621 z"
             inkscape:connector-curvature="0" />
        </g>
        <text
           id="text3078"
           transform="matrix(1,0,0,-0.99999988,137.47323,1.758136)">
          <tspan
             id="tspan3080"
             y="0"
             x="0"
             style="font-size:8.45223808px;font-variant:normal;font-weight:normal;writing-mode:lr-tb;fill:#000000;fill-opacity:1;fill-rule:nonzero;stroke:none;font-family:DejaVu Sans;-inkscape-font-specification:DejaVuSans">p</tspan>
        </text>
      </g>
    </g>
    <g
       transform="matrix(1.25,0,0,-1.25,283.0334,140.66313)"
       inkscape:label="fitted_bin_2"
       id="g3144">
      <g
         id="g3146">
        <g
           transform="matrix(1,0,0,-1,0,95.500267)"
           id="g3148">
          <path
             id="path3150"
             style="fill:#d100d1;fill-opacity:1;fill-rule:evenodd;stroke:#d100d1;stroke-width:0.202765;stroke-linecap:butt;stroke-linejoin:miter;stroke-miterlimit:10;stroke-opacity:1;stroke-dasharray:none"
             d="m 130.176,29.621 7.301,0 0,36.496 -7.301,0 0,-36.496 z"
             inkscape:connector-curvature="0" />
        </g>
        <g
           transform="matrix(1,0,0,-1,0,95.500267)"
           id="g3152">
          <path
             id="path3154"
             style="fill:none;stroke:#000000;stroke-width:0.202765;stroke-linecap:butt;stroke-linejoin:miter;stroke-miterlimit:10;stroke-opacity:1;stroke-dasharray:none"
             d="m 130.176,17.453 7.301,0 0,48.664 -7.301,0 0,-48.664 z"
             inkscape:connector-curvature="0" />
        </g>
        <g
           transform="matrix(1,0,0,-1,0,95.500267)"
           id="g3156">
          <path
             id="path3158"
             style="fill:#ff0000;fill-opacity:1;fill-rule:evenodd;stroke:#ff0000;stroke-width:0.202765;stroke-linecap:butt;stroke-linejoin:miter;stroke-miterlimit:10;stroke-opacity:1;stroke-dasharray:none"
             d="m 57.18,41.785 7.301,0 0,24.332 -7.301,0 0,-24.332 z"
             inkscape:connector-curvature="0" />
        </g>
        <g
           transform="matrix(1,0,0,-1,0,95.500267)"
           id="g3160">
          <path
             id="path3162"
             style="fill:none;stroke:#000000;stroke-width:0.202765;stroke-linecap:butt;stroke-linejoin:miter;stroke-miterlimit:10;stroke-opacity:1;stroke-dasharray:none"
             d="m 57.18,17.453 7.301,0 0,48.664 -7.301,0 0,-48.664 z"
             inkscape:connector-curvature="0" />
        </g>
        <g
           transform="matrix(1,0,0,-1,0,95.500267)"
           id="g3164">
          <path
             id="path3166"
             style="fill:#0000ff;fill-opacity:1;fill-rule:evenodd;stroke:#0000ff;stroke-width:0.202765;stroke-linecap:butt;stroke-linejoin:miter;stroke-miterlimit:10;stroke-opacity:1;stroke-dasharray:none"
             d="m 8.516,32.051 7.301,0 0,34.066 -7.301,0 0,-34.066 z"
             inkscape:connector-curvature="0" />
        </g>
        <g
           transform="matrix(1,0,0,-1,0,95.500267)"
           id="g3168">
          <path
             id="path3170"
             style="fill:none;stroke:#000000;stroke-width:0.202765;stroke-linecap:butt;stroke-linejoin:miter;stroke-miterlimit:10;stroke-opacity:1;stroke-dasharray:none"
             d="m 8.516,17.453 7.301,0 0,48.664 -7.301,0 0,-48.664 z"
             inkscape:connector-curvature="0" />
        </g>
        <g
           transform="matrix(1,0,0,-1,0,95.500267)"
           id="g3172">
          <path
             id="path3174"
             style="fill:none;stroke:#000000;stroke-width:0.202765;stroke-linecap:butt;stroke-linejoin:miter;stroke-miterlimit:10;stroke-opacity:1;stroke-dasharray:none"
             d="m 103.41,17.453 7.301,0 0,48.664 -7.301,0 0,-48.664 z"
             inkscape:connector-curvature="0" />
        </g>
        <g
           transform="matrix(1,0,0,-1,0,95.500267)"
           id="g3176">
          <path
             id="path3178"
             style="fill:#00ffff;fill-opacity:1;fill-rule:evenodd;stroke:#000000;stroke-width:0.202765;stroke-linecap:butt;stroke-linejoin:miter;stroke-miterlimit:10;stroke-opacity:1;stroke-dasharray:none"
             d="m 103.41,36.918 7.301,0 0,29.199 -7.301,0 0,-29.199 z"
             inkscape:connector-curvature="0" />
        </g>
        <path
           id="path3180"
           style="fill:#0000ff;fill-opacity:1;fill-rule:evenodd;stroke:none"
           d="m 14.598,11.133 c 0,-1.344 -1.09,-2.434 -2.434,-2.434 -1.344,0 -2.43,1.09 -2.43,2.434 0,1.344 1.086,2.434 2.43,2.434 1.344,0 2.434,-1.09 2.434,-2.434"
           inkscape:connector-curvature="0" />
        <g
           transform="matrix(1,0,0,-1,0,95.500267)"
           id="g3182">
          <path
             id="path3184"
             style="fill:none;stroke:#0000ff;stroke-width:0.202765;stroke-linecap:butt;stroke-linejoin:miter;stroke-miterlimit:10;stroke-opacity:1;stroke-dasharray:none"
             d="m 14.598,84.367 c 0,1.344 -1.09,2.434 -2.434,2.434 -1.344,0 -2.43,-1.09 -2.43,-2.434 0,-1.344 1.086,-2.433 2.43,-2.433 1.344,0 2.434,1.089 2.434,2.433 z"
             inkscape:connector-curvature="0" />
        </g>
        <path
           id="path3186"
           style="fill:#ff0000;fill-opacity:1;fill-rule:evenodd;stroke:none"
           d="m 63.262,11.133 c 0,-1.344 -1.09,-2.434 -2.434,-2.434 -1.344,0 -2.433,1.09 -2.433,2.434 0,1.344 1.089,2.434 2.433,2.434 1.344,0 2.434,-1.09 2.434,-2.434"
           inkscape:connector-curvature="0" />
        <g
           transform="matrix(1,0,0,-1,0,95.500267)"
           id="g3188">
          <path
             id="path3190"
             style="fill:none;stroke:#ff0000;stroke-width:0.202765;stroke-linecap:butt;stroke-linejoin:miter;stroke-miterlimit:10;stroke-opacity:1;stroke-dasharray:none"
             d="m 63.262,84.367 c 0,1.344 -1.09,2.434 -2.434,2.434 -1.344,0 -2.433,-1.09 -2.433,-2.434 0,-1.344 1.089,-2.433 2.433,-2.433 1.344,0 2.434,1.089 2.434,2.433 z"
             inkscape:connector-curvature="0" />
        </g>
        <path
           id="path3192"
           style="fill:#d100d1;fill-opacity:1;fill-rule:evenodd;stroke:none"
           d="m 136.258,11.133 c 0,-1.344 -1.09,-2.434 -2.434,-2.434 -1.344,0 -2.433,1.09 -2.433,2.434 0,1.344 1.089,2.434 2.433,2.434 1.344,0 2.434,-1.09 2.434,-2.434"
           inkscape:connector-curvature="0" />
        <g
           transform="matrix(1,0,0,-1,0,95.500267)"
           id="g3194">
          <path
             id="path3196"
             style="fill:none;stroke:#d100d1;stroke-width:0.202765;stroke-linecap:butt;stroke-linejoin:miter;stroke-miterlimit:10;stroke-opacity:1;stroke-dasharray:none"
             d="m 136.258,84.367 c 0,1.344 -1.09,2.434 -2.434,2.434 -1.344,0 -2.433,-1.09 -2.433,-2.434 0,-1.344 1.089,-2.433 2.433,-2.433 1.344,0 2.434,1.089 2.434,2.433 z"
             inkscape:connector-curvature="0" />
        </g>
        <path
           id="path3198"
           style="fill:#00ffff;fill-opacity:1;fill-rule:evenodd;stroke:none"
           d="m 109.492,11.133 c 0,-1.344 -1.09,-2.434 -2.433,-2.434 -1.344,0 -2.434,1.09 -2.434,2.434 0,1.344 1.09,2.434 2.434,2.434 1.343,0 2.433,-1.09 2.433,-2.434"
           inkscape:connector-curvature="0" />
        <g
           transform="matrix(1,0,0,-1,0,95.500267)"
           id="g3200">
          <path
             id="path3202"
             style="fill:none;stroke:#00ffff;stroke-width:0.202765;stroke-linecap:butt;stroke-linejoin:miter;stroke-miterlimit:10;stroke-opacity:1;stroke-dasharray:none"
             d="m 109.492,84.367 c 0,1.344 -1.09,2.434 -2.433,2.434 -1.344,0 -2.434,-1.09 -2.434,-2.434 0,-1.344 1.09,-2.433 2.434,-2.433 1.343,0 2.433,1.089 2.433,2.433 z"
             inkscape:connector-curvature="0" />
        </g>
      </g>
      <g
         id="g3204">
        <g
           clip-path="url(#clipPath3208)"
           id="g3206">
          <g
             clip-path="url(#clipPath3214)"
             id="g3212">
            <g
               transform="translate(0,-0.499733)"
               id="g3218">
              <g
                 id="g3220">
                <g
                   clip-path="url(#clipPath3224)"
                   id="g3222">
                  <g
                     id="g3228">
                    <g
                       transform="translate(0,96)"
                       id="g3230">
                      <path
                         id="path3232"
                         style="fill:none;stroke:#000000;stroke-width:0.202765;stroke-linecap:butt;stroke-linejoin:miter;stroke-miterlimit:10;stroke-opacity:1;stroke-dasharray:none"
                         d="m 0,-84.367 148.422,0"
                         inkscape:connector-curvature="0" />
                    </g>
                  </g>
                </g>
              </g>
            </g>
          </g>
        </g>
      </g>
      <g
         id="g3234">
        <path
           id="path3236"
           style="fill:#000000;fill-opacity:1;fill-rule:evenodd;stroke:none"
           d="m 144.746,10.324 3.246,0.809 -3.246,0.813 0,-1.622"
           inkscape:connector-curvature="0" />
        <g
           transform="matrix(1,0,0,-1,0,95.500267)"
           id="g3238">
          <path
             id="path3240"
             style="fill:none;stroke:#000000;stroke-width:0.202765;stroke-linecap:butt;stroke-linejoin:miter;stroke-miterlimit:10;stroke-opacity:1;stroke-dasharray:none"
             d="m 144.746,85.176 3.246,-0.809 -3.246,-0.812 0,1.621 z"
             inkscape:connector-curvature="0" />
        </g>
        <text
           id="text3242"
           transform="matrix(1,0,0,-1,137.47324,1.758133)">
          <tspan
             id="tspan3244"
             y="0"
             x="0"
             style="font-size:8.45223808px;font-variant:normal;font-weight:normal;writing-mode:lr-tb;fill:#000000;fill-opacity:1;fill-rule:nonzero;stroke:none;font-family:DejaVu Sans;-inkscape-font-specification:DejaVuSans">p</tspan>
        </text>
      </g>
    </g>
    <g
       transform="matrix(1.25,0,0,-1.25,507.18319,140.59926)"
       inkscape:label="fitted_bin_3"
       id="g3324">
      <g
         id="g3326">
        <g
           transform="matrix(1,0,0,-1,0,95.500267)"
           id="g3328">
          <path
             id="path3330"
             style="fill:#d100d1;fill-opacity:1;fill-rule:evenodd;stroke:#d100d1;stroke-width:0.202765;stroke-linecap:butt;stroke-linejoin:miter;stroke-miterlimit:10;stroke-opacity:1;stroke-dasharray:none"
             d="m 130.176,29.621 7.301,0 0,36.496 -7.301,0 0,-36.496 z"
             inkscape:connector-curvature="0" />
        </g>
        <g
           transform="matrix(1,0,0,-1,0,95.500267)"
           id="g3332">
          <path
             id="path3334"
             style="fill:none;stroke:#000000;stroke-width:0.202765;stroke-linecap:butt;stroke-linejoin:miter;stroke-miterlimit:10;stroke-opacity:1;stroke-dasharray:none"
             d="m 130.176,17.453 7.301,0 0,48.664 -7.301,0 0,-48.664 z"
             inkscape:connector-curvature="0" />
        </g>
        <g
           transform="matrix(1,0,0,-1,0,95.500267)"
           id="g3336">
          <path
             id="path3338"
             style="fill:#ff0000;fill-opacity:1;fill-rule:evenodd;stroke:#ff0000;stroke-width:0.202765;stroke-linecap:butt;stroke-linejoin:miter;stroke-miterlimit:10;stroke-opacity:1;stroke-dasharray:none"
             d="m 57.18,41.785 7.301,0 0,24.332 -7.301,0 0,-24.332 z"
             inkscape:connector-curvature="0" />
        </g>
        <g
           transform="matrix(1,0,0,-1,0,95.500267)"
           id="g3340">
          <path
             id="path3342"
             style="fill:none;stroke:#000000;stroke-width:0.202765;stroke-linecap:butt;stroke-linejoin:miter;stroke-miterlimit:10;stroke-opacity:1;stroke-dasharray:none"
             d="m 57.18,17.453 7.301,0 0,48.664 -7.301,0 0,-48.664 z"
             inkscape:connector-curvature="0" />
        </g>
        <g
           transform="matrix(1,0,0,-1,0,95.500267)"
           id="g3344">
          <path
             id="path3346"
             style="fill:#0000ff;fill-opacity:1;fill-rule:evenodd;stroke:#0000ff;stroke-width:0.202765;stroke-linecap:butt;stroke-linejoin:miter;stroke-miterlimit:10;stroke-opacity:1;stroke-dasharray:none"
             d="m 8.516,32.051 7.301,0 0,34.066 -7.301,0 0,-34.066 z"
             inkscape:connector-curvature="0" />
        </g>
        <g
           transform="matrix(1,0,0,-1,0,95.500267)"
           id="g3348">
          <path
             id="path3350"
             style="fill:none;stroke:#000000;stroke-width:0.202765;stroke-linecap:butt;stroke-linejoin:miter;stroke-miterlimit:10;stroke-opacity:1;stroke-dasharray:none"
             d="m 8.516,17.453 7.301,0 0,48.664 -7.301,0 0,-48.664 z"
             inkscape:connector-curvature="0" />
        </g>
        <g
           transform="matrix(1,0,0,-1,0,95.500267)"
           id="g3352">
          <path
             id="path3354"
             style="fill:none;stroke:#000000;stroke-width:0.202765;stroke-linecap:butt;stroke-linejoin:miter;stroke-miterlimit:10;stroke-opacity:1;stroke-dasharray:none"
             d="m 103.41,17.453 7.301,0 0,48.664 -7.301,0 0,-48.664 z"
             inkscape:connector-curvature="0" />
        </g>
        <g
           transform="matrix(1,0,0,-1,0,95.500267)"
           id="g3356">
          <path
             id="path3358"
             style="fill:#00ffff;fill-opacity:1;fill-rule:evenodd;stroke:#000000;stroke-width:0.202765;stroke-linecap:butt;stroke-linejoin:miter;stroke-miterlimit:10;stroke-opacity:1;stroke-dasharray:none"
             d="m 103.41,36.918 7.301,0 0,29.199 -7.301,0 0,-29.199 z"
             inkscape:connector-curvature="0" />
        </g>
        <path
           id="path3360"
           style="fill:#0000ff;fill-opacity:1;fill-rule:evenodd;stroke:none"
           d="m 14.598,11.133 c 0,-1.344 -1.09,-2.434 -2.434,-2.434 -1.344,0 -2.43,1.09 -2.43,2.434 0,1.344 1.086,2.434 2.43,2.434 1.344,0 2.434,-1.09 2.434,-2.434"
           inkscape:connector-curvature="0" />
        <g
           transform="matrix(1,0,0,-1,0,95.500267)"
           id="g3362">
          <path
             id="path3364"
             style="fill:none;stroke:#0000ff;stroke-width:0.202765;stroke-linecap:butt;stroke-linejoin:miter;stroke-miterlimit:10;stroke-opacity:1;stroke-dasharray:none"
             d="m 14.598,84.367 c 0,1.344 -1.09,2.434 -2.434,2.434 -1.344,0 -2.43,-1.09 -2.43,-2.434 0,-1.344 1.086,-2.433 2.43,-2.433 1.344,0 2.434,1.089 2.434,2.433 z"
             inkscape:connector-curvature="0" />
        </g>
        <path
           id="path3366"
           style="fill:#ff0000;fill-opacity:1;fill-rule:evenodd;stroke:none"
           d="m 63.262,11.133 c 0,-1.344 -1.09,-2.434 -2.434,-2.434 -1.344,0 -2.433,1.09 -2.433,2.434 0,1.344 1.089,2.434 2.433,2.434 1.344,0 2.434,-1.09 2.434,-2.434"
           inkscape:connector-curvature="0" />
        <g
           transform="matrix(1,0,0,-1,0,95.500267)"
           id="g3368">
          <path
             id="path3370"
             style="fill:none;stroke:#ff0000;stroke-width:0.202765;stroke-linecap:butt;stroke-linejoin:miter;stroke-miterlimit:10;stroke-opacity:1;stroke-dasharray:none"
             d="m 63.262,84.367 c 0,1.344 -1.09,2.434 -2.434,2.434 -1.344,0 -2.433,-1.09 -2.433,-2.434 0,-1.344 1.089,-2.433 2.433,-2.433 1.344,0 2.434,1.089 2.434,2.433 z"
             inkscape:connector-curvature="0" />
        </g>
        <path
           id="path3372"
           style="fill:#d100d1;fill-opacity:1;fill-rule:evenodd;stroke:none"
           d="m 136.258,11.133 c 0,-1.344 -1.09,-2.434 -2.434,-2.434 -1.344,0 -2.433,1.09 -2.433,2.434 0,1.344 1.089,2.434 2.433,2.434 1.344,0 2.434,-1.09 2.434,-2.434"
           inkscape:connector-curvature="0" />
        <g
           transform="matrix(1,0,0,-1,0,95.500267)"
           id="g3374">
          <path
             id="path3376"
             style="fill:none;stroke:#d100d1;stroke-width:0.202765;stroke-linecap:butt;stroke-linejoin:miter;stroke-miterlimit:10;stroke-opacity:1;stroke-dasharray:none"
             d="m 136.258,84.367 c 0,1.344 -1.09,2.434 -2.434,2.434 -1.344,0 -2.433,-1.09 -2.433,-2.434 0,-1.344 1.089,-2.433 2.433,-2.433 1.344,0 2.434,1.089 2.434,2.433 z"
             inkscape:connector-curvature="0" />
        </g>
        <path
           id="path3378"
           style="fill:#00ffff;fill-opacity:1;fill-rule:evenodd;stroke:none"
           d="m 109.492,11.133 c 0,-1.344 -1.09,-2.434 -2.433,-2.434 -1.344,0 -2.434,1.09 -2.434,2.434 0,1.344 1.09,2.434 2.434,2.434 1.343,0 2.433,-1.09 2.433,-2.434"
           inkscape:connector-curvature="0" />
        <g
           transform="matrix(1,0,0,-1,0,95.500267)"
           id="g3380">
          <path
             id="path3382"
             style="fill:none;stroke:#00ffff;stroke-width:0.202765;stroke-linecap:butt;stroke-linejoin:miter;stroke-miterlimit:10;stroke-opacity:1;stroke-dasharray:none"
             d="m 109.492,84.367 c 0,1.344 -1.09,2.434 -2.433,2.434 -1.344,0 -2.434,-1.09 -2.434,-2.434 0,-1.344 1.09,-2.433 2.434,-2.433 1.343,0 2.433,1.089 2.433,2.433 z"
             inkscape:connector-curvature="0" />
        </g>
      </g>
      <g
         id="g3384">
        <g
           clip-path="url(#clipPath3388)"
           id="g3386">
          <g
             clip-path="url(#clipPath3394)"
             id="g3392">
            <g
               transform="translate(0,-0.499733)"
               id="g3398">
              <g
                 id="g3400">
                <g
                   clip-path="url(#clipPath3404)"
                   id="g3402">
                  <g
                     id="g3408">
                    <g
                       transform="translate(0,96)"
                       id="g3410">
                      <path
                         id="path3412"
                         style="fill:none;stroke:#000000;stroke-width:0.202765;stroke-linecap:butt;stroke-linejoin:miter;stroke-miterlimit:10;stroke-opacity:1;stroke-dasharray:none"
                         d="m 0,-84.367 148.422,0"
                         inkscape:connector-curvature="0" />
                    </g>
                  </g>
                </g>
              </g>
            </g>
          </g>
        </g>
      </g>
      <g
         id="g3414">
        <path
           id="path3416"
           style="fill:#000000;fill-opacity:1;fill-rule:evenodd;stroke:none"
           d="m 144.746,10.324 3.246,0.809 -3.246,0.813 0,-1.622"
           inkscape:connector-curvature="0" />
        <g
           transform="matrix(1,0,0,-1,0,95.500267)"
           id="g3418">
          <path
             id="path3420"
             style="fill:none;stroke:#000000;stroke-width:0.202765;stroke-linecap:butt;stroke-linejoin:miter;stroke-miterlimit:10;stroke-opacity:1;stroke-dasharray:none"
             d="m 144.746,85.176 3.246,-0.809 -3.246,-0.812 0,1.621 z"
             inkscape:connector-curvature="0" />
        </g>
        <g
           transform="matrix(1,0,0,-1,0,95.500267)"
           id="g3422">
          <path
             id="path3424"
             style="fill:none;stroke:#000000;stroke-width:0.811059;stroke-linecap:butt;stroke-linejoin:miter;stroke-miterlimit:10;stroke-opacity:1;stroke-dasharray:8.110592, 8.110592;stroke-dashoffset:0"
             d="m 2.434,29.617 c 20.484,8.914 42.586,13.516 64.925,13.516 27.032,0 53.637,-6.735 77.414,-19.598"
             inkscape:connector-curvature="0" />
        </g>
        <text
           id="text3426"
           transform="matrix(1,0,0,-1,137.47324,1.758133)">
          <tspan
             id="tspan3428"
             y="0"
             x="0"
             style="font-size:8.45223808px;font-variant:normal;font-weight:normal;writing-mode:lr-tb;fill:#000000;fill-opacity:1;fill-rule:nonzero;stroke:none;font-family:DejaVu Sans;-inkscape-font-specification:DejaVuSans">p</tspan>
        </text>
        <text
           id="text3430"
           transform="matrix(1,0,0,-1,31.714287,87.142845)">
          <tspan
             id="tspan3432"
             sodipodi:role="line"
             y="0"
             x="0 3.0469997 10.009999 14.321999 21.086998 25.607998 32.581997 39.302998 42.349995 49.081997 53.393993 60.158993 67.132996 70.619995 77.120995 83.885994 86.932991 93.895988"
             style="font-size:10.99999905px;font-variant:normal;font-weight:normal;writing-mode:lr-tb;fill:#000000;fill-opacity:1;fill-rule:nonzero;stroke:none;font-family:DejaVu Sans;-inkscape-font-specification:DejaVuSans">interpolated value</tspan>
        </text>
        <g
           transform="matrix(1,0,0,-1,0,95.500267)"
           id="g3434">
          <path
             id="path3436"
             style="fill:none;stroke:#000000;stroke-width:0.728553;stroke-linecap:butt;stroke-linejoin:miter;stroke-miterlimit:4;stroke-opacity:1;stroke-dasharray:none"
             d="M 46.207,10.391 36.625,37.055"
             inkscape:connector-curvature="0" />
        </g>
        <g
           transform="matrix(0.359371,1,1,-0.359371,0,95.500267)"
           id="g3438">
          <path
             id="path3440"
             style="fill:#000000;fill-opacity:1;fill-rule:evenodd;stroke:#000000;stroke-width:0.471367;stroke-linecap:butt;stroke-linejoin:round;stroke-miterlimit:4;stroke-opacity:1;stroke-dasharray:none"
             d="m -13.832,47.272 -8.237,-3.029 8.239,-3.031 c -1.318,1.79 -1.31,4.237 -0.002,6.06 z"
             inkscape:connector-curvature="0" />
        </g>
      </g>
      <rect
         style="fill:#ffffff;stroke:none"
         id="rect3501"
         width="133.84521"
         height="18.687822"
         x="540.43164"
         y="18.976128"
         transform="matrix(0.8,0,0,-0.8,-404.14655,113.84272)" />
      <text
         xml:space="preserve"
         style="font-size:32px;font-style:normal;font-weight:normal;line-height:125%;letter-spacing:0px;word-spacing:0px;fill:#000000;fill-opacity:1;stroke:none;font-family:Sans"
         x="13.652551"
         y="-90.580597"
         id="text3503"
         sodipodi:linespacing="125%"
         transform="scale(1,-1)"><tspan
           sodipodi:role="line"
           id="tspan3505"
           x="13.652551"
           y="-90.580597"
           style="font-size:14.39999962px;font-style:normal;font-variant:normal;font-weight:500;font-stretch:normal;font-family:URW Palladio L;-inkscape-font-specification:URW Palladio L Medium">Interpolated value</tspan></text>
    </g>
    <rect
       style="fill:#ffffff;stroke:none"
       id="rect3507"
       width="20.714285"
       height="9.999999"
       x="226.32562"
       y="131.65298" />
    <rect
       style="fill:#ffffff;stroke:none"
       id="rect3507-8"
       width="20.714285"
       height="9.999999"
       x="453.11133"
       y="130.22441" />
    <rect
       style="fill:#ffffff;stroke:none"
       id="rect3507-8-8"
       width="20.714285"
       height="9.999999"
       x="673.82562"
       y="130.93871" />
    <text
       xml:space="preserve"
       style="font-size:40px;font-style:normal;font-weight:normal;line-height:125%;letter-spacing:0px;word-spacing:0px;fill:#000000;fill-opacity:1;stroke:none;font-family:Sans"
       x="250.32561"
       y="127.36727"
       id="text3545"
       sodipodi:linespacing="125%"><tspan
         sodipodi:role="line"
         id="tspan3547"
         x="250.32561"
         y="127.36727"
         style="font-size:18px;font-style:normal;font-variant:normal;font-weight:500;font-stretch:normal;font-family:URW Palladio L;-inkscape-font-specification:URW Palladio L Medium">p</tspan></text>
    <text
       xml:space="preserve"
       style="font-size:40px;font-style:normal;font-weight:normal;line-height:125%;letter-spacing:0px;word-spacing:0px;fill:#000000;fill-opacity:1;stroke:none;font-family:Sans"
       x="476.26761"
       y="127.77355"
       id="text3545-5"
       sodipodi:linespacing="125%"><tspan
         sodipodi:role="line"
         id="tspan3547-0"
         x="476.26761"
         y="127.77355"
         style="font-size:18px;font-style:normal;font-variant:normal;font-weight:500;font-stretch:normal;font-family:URW Palladio L;-inkscape-font-specification:URW Palladio L Medium">p</tspan></text>
    <text
       xml:space="preserve"
       style="font-size:40px;font-style:normal;font-weight:normal;line-height:125%;letter-spacing:0px;word-spacing:0px;fill:#000000;fill-opacity:1;stroke:none;font-family:Sans"
       x="700.12469"
       y="128.48784"
       id="text3545-5-9"
       sodipodi:linespacing="125%"><tspan
         sodipodi:role="line"
         id="tspan3547-0-6"
         x="700.12469"
         y="128.48784"
         style="font-size:18px;font-style:normal;font-variant:normal;font-weight:500;font-stretch:normal;font-family:URW Palladio L;-inkscape-font-specification:URW Palladio L Medium">p</tspan></text>
  </g>
</svg>
